<svg id="visual" viewBox="0 0 1960 1104" width="1960" height="1104" xmlns="http://www.w3.org/2000/svg" xmlns:xlink="http://www.w3.org/1999/xlink" version="1.1"><rect x="0" y="0" width="1960" height="1104" fill="#000000"></rect><path d="M0 710L196 710L196 696L392 696L392 671L588 671L588 724L784 724L784 677L980 677L980 637L1176 637L1176 741L1372 741L1372 670L1568 670L1568 743L1764 743L1764 790L1960 790L1960 688L1960 1105L1960 1105L1764 1105L1764 1105L1568 1105L1568 1105L1372 1105L1372 1105L1176 1105L1176 1105L980 1105L980 1105L784 1105L784 1105L588 1105L588 1105L392 1105L392 1105L196 1105L196 1105L0 1105Z" fill="#a8a89e"></path><path d="M0 727L196 727L196 880L392 880L392 803L588 803L588 811L784 811L784 804L980 804L980 908L1176 908L1176 784L1372 784L1372 816L1568 816L1568 885L1764 885L1764 801L1960 801L1960 814L1960 1105L1960 1105L1764 1105L1764 1105L1568 1105L1568 1105L1372 1105L1372 1105L1176 1105L1176 1105L980 1105L980 1105L784 1105L784 1105L588 1105L588 1105L392 1105L392 1105L196 1105L196 1105L0 1105Z" fill="#b4b4ad"></path><path d="M0 972L196 972L196 908L392 908L392 954L588 954L588 843L784 843L784 972L980 972L980 859L1176 859L1176 911L1372 911L1372 926L1568 926L1568 951L1764 951L1764 830L1960 830L1960 897L1960 1105L1960 1105L1764 1105L1764 1105L1568 1105L1568 1105L1372 1105L1372 1105L1176 1105L1176 1105L980 1105L980 1105L784 1105L784 1105L588 1105L588 1105L392 1105L392 1105L196 1105L196 1105L0 1105Z" fill="#c0c0bd"></path><path d="M0 953L196 953L196 962L392 962L392 1014L588 1014L588 988L784 988L784 1010L980 1010L980 1049L1176 1049L1176 1016L1372 1016L1372 955L1568 955L1568 998L1764 998L1764 1016L1960 1016L1960 954L1960 1105L1960 1105L1764 1105L1764 1105L1568 1105L1568 1105L1372 1105L1372 1105L1176 1105L1176 1105L980 1105L980 1105L784 1105L784 1105L588 1105L588 1105L392 1105L392 1105L196 1105L196 1105L0 1105Z" fill="#cccccc"></path></svg>