<svg id="visual" viewBox="0 0 1960 1104" width="1960" height="1104" xmlns="http://www.w3.org/2000/svg" xmlns:xlink="http://www.w3.org/1999/xlink" version="1.1"><rect x="0" y="0" width="1960" height="1104" fill="#000000"></rect><path d="M1358 1104L1000 1104L1000 946L914 946L914 789L1024 789L1024 631L1336 631L1336 473L1187 473L1187 315L1115 315L1115 158L929 158L929 0L1960 0L1960 158L1960 158L1960 315L1960 315L1960 473L1960 473L1960 631L1960 631L1960 789L1960 789L1960 946L1960 946L1960 1104L1960 1104Z" fill="#cccccc"></path><path d="M1289 1104L1318 1104L1318 946L1589 946L1589 789L1461 789L1461 631L1524 631L1524 473L1478 473L1478 315L1580 315L1580 158L1317 158L1317 0L1960 0L1960 158L1960 158L1960 315L1960 315L1960 473L1960 473L1960 631L1960 631L1960 789L1960 789L1960 946L1960 946L1960 1104L1960 1104Z" fill="#babab5"></path><path d="M1868 1104L1658 1104L1658 946L1748 946L1748 789L1581 789L1581 631L1470 631L1470 473L1554 473L1554 315L1862 315L1862 158L1859 158L1859 0L1960 0L1960 158L1960 158L1960 315L1960 315L1960 473L1960 473L1960 631L1960 631L1960 789L1960 789L1960 946L1960 946L1960 1104L1960 1104Z" fill="#a8a89e"></path></svg>